<?xml version="1.0" standalone="no"?>
<!DOCTYPE svg PUBLIC "-//W3C//DTD SVG 20010904//EN"
 "http://www.w3.org/TR/2001/REC-SVG-20010904/DTD/svg10.dtd">
<svg version="1.0" xmlns="http://www.w3.org/2000/svg"
 fill="#7C7D82" viewBox="0 0 224.000000 225.000000"
 preserveAspectRatio="xMidYMid meet">

<g transform="translate(0.000000,225.000000) scale(0.100000,-0.100000)"
stroke="none">
<path d="M1910 2104 l-129 -127 -38 17 c-150 67 -332 58 -467 -24 -31 -19
-104 -82 -161 -141 -101 -102 -105 -108 -105 -150 l0 -43 308 -308 308 -308
48 0 c48 0 49 0 155 108 113 114 155 179 186 286 25 87 17 219 -20 310 l-27
68 127 128 c116 116 126 129 116 149 -23 43 -51 26 -194 -117 -75 -75 -137
-143 -137 -151 0 -7 14 -43 32 -80 27 -56 33 -80 36 -157 7 -154 -30 -233
-182 -392 -34 -35 -69 -68 -80 -74 -16 -9 -57 28 -307 278 -159 159 -289 296
-289 304 0 20 181 198 230 227 107 64 275 71 391 15 37 -18 73 -32 81 -32 7 0
75 62 151 138 142 142 158 170 116 192 -19 10 -34 -1 -149 -116z"/>
<path d="M905 1448 c-11 -6 -61 -52 -112 -102 -151 -151 -138 -141 -167 -122
-14 9 -42 16 -62 16 -34 0 -47 -10 -144 -105 -62 -61 -122 -131 -143 -167 -73
-124 -85 -281 -32 -427 l27 -73 -127 -128 c-114 -116 -125 -130 -115 -149 22
-43 50 -26 193 117 75 75 137 145 137 155 0 10 -11 39 -23 65 -38 76 -50 135
-45 222 7 120 49 197 177 325 l101 99 295 -294 c162 -162 295 -298 295 -303 0
-13 -148 -159 -203 -201 -113 -84 -287 -100 -423 -37 -42 19 -80 31 -91 27
-10 -3 -78 -66 -151 -139 -136 -138 -152 -165 -111 -187 19 -10 34 1 149 116
l129 127 53 -21 c157 -62 298 -55 441 20 72 39 270 230 281 272 5 20 1 41 -13
70 l-21 41 114 115 c125 127 136 142 136 195 0 52 -53 105 -105 105 -20 0 -46
-5 -58 -11 -12 -6 -75 -64 -140 -127 l-117 -117 -107 107 -107 107 127 130
c126 128 127 129 127 176 0 40 -5 52 -34 81 -27 27 -42 34 -72 34 -22 0 -48
-6 -59 -12z m83 -98 c2 -20 -19 -47 -113 -140 l-115 -115 -27 27 -27 28 116
116 c92 91 121 115 140 112 16 -2 24 -10 26 -28z m370 -352 c27 -27 11 -55
-103 -168 l-115 -115 -27 28 -28 28 121 119 c66 66 125 120 130 120 6 0 15 -5
22 -12z"/>
</g>
</svg>
