<?xml version="1.0" standalone="no"?>
<!DOCTYPE svg PUBLIC "-//W3C//DTD SVG 20010904//EN"
 "http://www.w3.org/TR/2001/REC-SVG-20010904/DTD/svg10.dtd">
<svg version="1.0" xmlns="http://www.w3.org/2000/svg"
 fill="#7C7D82"  viewBox="0 0 555.000000 517.000000"
 preserveAspectRatio="xMidYMid meet"><title>Interviews-icon</title><g transform="translate(0.000000,517.000000) scale(0.100000,-0.100000)"
 stroke="none">
<path d="M2333 5052 c-100 -35 -187 -124 -224 -227 -19 -54 -20 -78 -17 -498
l3 -442 27 -57 c37 -79 98 -142 177 -181 l66 -32 460 -3 461 -3 229 -229 c127
-127 233 -230 237 -230 5 0 8 103 8 229 l0 229 163 4 c150 3 166 5 219 30 76
35 148 104 184 175 l29 58 0 465 0 465 -28 57 c-36 74 -101 139 -175 175 l-57
28 -855 2 c-800 2 -858 1 -907 -15z"/>
<path d="M1108 3800 c-79 -13 -188 -52 -256 -92 -31 -18 -93 -69 -138 -113
-66 -66 -89 -97 -128 -175 -61 -124 -79 -213 -73 -350 13 -300 211 -551 507
-641 59 -18 99 -23 185 -23 131 0 205 17 325 75 114 56 247 187 303 299 105
211 103 443 -5 653 -60 118 -181 237 -298 294 -47 23 -112 49 -145 57 -79 20
-205 27 -277 16z"/>
<path d="M4477 3625 c-178 -49 -325 -200 -372 -382 -85 -326 171 -653 510
-653 145 0 265 50 371 155 107 106 154 218 154 370 -1 98 -12 150 -52 235 -61
127 -211 248 -348 279 -62 14 -205 12 -263 -4z"/>
<path d="M4167 2425 c-142 -39 -290 -165 -365 -311 -80 -157 -82 -171 -82
-817 l0 -567 898 2 897 3 3 500 c2 291 -2 540 -7 596 -20 183 -78 305 -206
434 -87 88 -162 134 -261 159 -83 21 -800 22 -877 1z"/>
<path d="M2207 2268 c-13 -29 -41 -97 -63 -150 -21 -54 -42 -98 -45 -98 -3 0
-32 20 -64 46 -67 51 -172 104 -260 130 -53 16 -119 18 -540 22 -514 4 -577 0
-694 -44 -252 -95 -449 -344 -512 -649 -17 -83 -19 -147 -19 -807 l0 -718
1195 0 1195 0 0 265 0 265 206 0 205 0 19 43 c62 144 710 1728 710 1736 0 8
-201 11 -655 11 l-655 0 -23 -52z m965 -85 c189 -6 197 -7 187 -25 -10 -18
-29 -18 -542 -12 -293 4 -534 8 -536 10 -2 2 2 11 9 19 12 14 54 16 349 15
185 -1 425 -4 533 -7z m125 -166 c2 -2 1 -11 -2 -19 -5 -13 -72 -14 -538 -10
-293 2 -534 6 -536 8 -2 2 -1 11 3 20 6 16 43 17 538 11 292 -4 533 -8 535
-10z m-154 -156 c90 -6 97 -7 85 -23 -12 -16 -49 -16 -496 -11 -459 6 -483 7
-493 25 -10 18 1 19 398 17 224 -1 452 -4 506 -8z m23 -163 c4 -4 2 -14 -4
-21 -9 -11 -87 -12 -419 -9 -401 4 -422 6 -423 35 0 11 835 5 846 -5z m-137
-156 c79 -7 84 -8 68 -24 -15 -15 -50 -16 -364 -11 -335 5 -373 9 -357 35 6 9
531 9 653 0z m11 -166 c0 -8 -6 -18 -12 -22 -7 -5 -151 -8 -320 -6 -297 3
-308 4 -308 23 0 19 10 19 320 19 260 -1 320 -3 320 -14z m-73 -162 c3 -9 1
-19 -5 -23 -5 -3 -134 -5 -286 -3 -267 3 -276 3 -276 22 0 19 8 20 280 20 248
0 281 -2 287 -16z m-64 -150 c3 -3 3 -12 0 -20 -4 -11 -50 -14 -254 -14 -242
0 -249 1 -249 20 0 19 7 20 248 20 137 0 251 -3 255 -6z m-65 -171 c-3 -16
-23 -18 -221 -21 -212 -2 -217 -2 -217 18 0 19 6 20 221 20 205 0 220 -1 217
-17z"/>
</g>
</svg>
